<svg width="135" height="298" viewBox="0 0 135 298" fill="none" xmlns="http://www.w3.org/2000/svg">
<path d="M69.908 7.196C74.226 19.587 83.441 33.292 96.515 45.326C107.774 55.688 120.03 63.094 131.331 67.045C133.653 67.857 135.143 70.129 134.967 72.583C132.76 103.414 129.809 143.363 127.764 166.166C122.079 229.565 85.609 257.328 26.591 281.175L3.07899 296.518C2.17364 297.109 1.13633 297.404 0.098999 297.405V269.463C1.526 269.463 2.953 269.057 4.198 268.244L23.602 255.581C68.533 237.324 99.369 214.446 104.009 162.694C105.63 144.628 107.995 112.442 109.694 88.624C109.947 85.08 107.677 81.845 104.259 80.875C95.65 78.435 86.329 72.876 78.011 65.222C68.688 56.64 61.861 46.523 59.281 37.465C58.458 34.573 55.986 32.452 53.002 32.078C36.96 30.064 18.666 29 0.098999 29V0C23.723 0 45.955 1.294 65.389 3.572C67.464 3.815 69.22 5.223 69.908 7.196Z" fill="#D9D9D9"/>
<path d="M0.098999 44C16.281 44 32.213 44.832 46.501 46.414C50.526 56.643 58.103 67.284 67.854 76.259C76.08 83.829 85.293 89.745 94.32 93.317C92.672 116.283 90.553 144.815 89.07 161.355C85.055 206.132 59.715 224.813 17.302 241.95C16.302 242.356 17.254 241.813 0.098999 253.008V44Z" fill="#D9D9D9"/>
</svg>
