<svg width="135" height="298" viewBox="0 0 135 298" fill="none" xmlns="http://www.w3.org/2000/svg">
<path d="M69.5931 3.572C89.0281 1.294 111.26 0 134.884 0V29C116.316 29 98.0221 30.065 81.9801 32.078C78.9961 32.452 76.5241 34.573 75.7011 37.465C73.1211 46.523 66.2941 56.64 56.9711 65.222C48.6541 72.876 39.3321 78.435 30.7241 80.875C27.3061 81.845 25.0361 85.08 25.2881 88.624C26.9881 112.437 29.3521 144.618 30.9731 162.694C35.6131 214.446 66.4501 237.324 111.381 255.581L130.785 268.244C132.03 269.057 133.457 269.463 134.884 269.463V297.405C133.846 297.405 132.809 297.109 131.903 296.518L108.39 281.175C49.3731 257.328 12.9021 229.565 7.2171 166.166C5.1731 143.364 2.2211 103.414 0.0141028 72.583C-0.161897 70.125 1.3241 67.858 3.6501 67.045C14.9521 63.094 27.2091 55.688 38.4671 45.326C51.5421 33.293 60.7571 19.588 65.0741 7.196C65.7611 5.224 67.5191 3.815 69.5931 3.572Z" fill="#D9D9D9"/>
<path d="M88.4821 46.414C102.77 44.832 118.701 44 134.884 44V253.008C117.726 241.811 118.681 242.356 117.681 241.95C75.2671 224.813 49.9281 206.131 45.9121 161.355C44.4291 144.807 42.3111 116.278 40.6631 93.317C49.6901 89.744 58.9031 83.828 67.1291 76.259C76.8791 67.284 84.4571 56.643 88.4821 46.414Z" fill="#D9D9D9"/>
</svg>
