<svg width="767" height="952" viewBox="0 0 767 952" fill="none" xmlns="http://www.w3.org/2000/svg">
<g filter="url(#filter0_d_803_277)">
<path d="M43.1693 3.09714C242.611 337.044 -116.36 461.593 43.1694 942.2C43.1694 943.999 609.009 942.2 714.572 942.2C492.253 474.409 882.826 335.032 714.572 3.09717C671.657 3.09717 85.9775 -1.62145 43.1693 3.09714Z" fill="#602B3B"/>
<path d="M43.1145 2.60015L42.341 2.68541L42.74 3.35352C92.5546 86.7634 107.485 157.066 104.375 223.107C101.311 288.182 80.7328 349.146 58.6698 414.507L57.6626 417.491C12.7802 550.48 -37.122 701.898 42.6949 942.358L42.7129 942.352C42.7553 942.457 42.8179 942.558 42.8614 942.6C42.8743 942.609 42.8899 942.62 42.9063 942.63C42.9436 942.653 42.9851 942.675 43.0087 942.685C43.0699 942.71 43.1322 942.724 43.1751 942.732C43.2689 942.751 43.3916 942.766 43.5317 942.78C43.8171 942.807 44.234 942.833 44.7729 942.858C45.8533 942.908 47.4536 942.954 49.5396 942.997C53.7129 943.083 59.8454 943.155 67.6851 943.217C83.3651 943.34 105.882 943.417 133.231 943.459C187.928 943.544 261.958 943.487 339.285 943.375C413.988 943.266 491.769 943.105 558.173 942.968C629.245 942.821 687.285 942.701 714.572 942.701H715.363L715.024 941.986C659.474 825.102 642.221 728.759 644.942 644.811C647.663 560.856 670.361 489.266 694.768 421.873C698.5 411.568 702.272 401.361 706.019 391.222C751.273 268.768 792.817 156.353 715.018 2.87111L714.879 2.59717H714.572C706.565 2.59717 679.663 2.4329 640.917 2.19631C575.833 1.7989 477.333 1.19743 378.832 0.827691C300.264 0.532774 221.699 0.385308 160.099 0.606496C98.5209 0.827606 53.8508 1.41673 43.1145 2.60015Z" stroke="#602B3B" stroke-linecap="round"/>
</g>
<defs>
<filter id="filter0_d_803_277" x="0" y="0" width="766.999" height="952" filterUnits="userSpaceOnUse" color-interpolation-filters="sRGB">
<feFlood flood-opacity="0" result="BackgroundImageFix"/>
<feColorMatrix in="SourceAlpha" type="matrix" values="0 0 0 0 0 0 0 0 0 0 0 0 0 0 0 0 0 0 127 0" result="hardAlpha"/>
<feOffset dx="4" dy="4"/>
<feGaussianBlur stdDeviation="2"/>
<feComposite in2="hardAlpha" operator="out"/>
<feColorMatrix type="matrix" values="0 0 0 0 0 0 0 0 0 0 0 0 0 0 0 0 0 0 0.25 0"/>
<feBlend mode="normal" in2="BackgroundImageFix" result="effect1_dropShadow_803_277"/>
<feBlend mode="normal" in="SourceGraphic" in2="effect1_dropShadow_803_277" result="shape"/>
</filter>
</defs>
</svg>
