<svg width="1892" height="721" viewBox="0 0 1892 721" fill="none" xmlns="http://www.w3.org/2000/svg">
<path d="M1.12639 1.51624L0.500001 1.35258L0.5 2C0.499874 171.466 0.601456 220.176 0.713084 273.703C0.725335 279.578 0.737707 285.51 0.750079 291.667C0.875179 353.919 1.00026 439.077 1.00005 718.761C1.0712 719.022 1.32374 719.234 1.39269 719.255C1.42776 719.264 1.48093 719.274 1.52043 719.28C1.59487 719.289 1.69437 719.298 1.81132 719.306C2.04881 719.321 2.39798 719.336 2.85333 719.351C3.76586 719.381 5.12434 719.41 6.91252 719.438C10.4898 719.494 15.7965 719.547 22.7164 719.598C36.5565 719.699 56.8548 719.79 82.6879 719.871C134.354 720.034 208.163 720.158 296.734 720.251C473.875 720.437 710.062 720.499 946.25 720.5C1182.44 720.501 1418.63 720.44 1595.77 720.378C1684.34 720.348 1758.14 720.317 1809.81 720.294C1835.64 720.283 1855.94 720.273 1869.78 720.266L1885.58 720.258L1889.63 720.256L1890.66 720.256L1890.91 720.256L1890.98 720.256C1890.99 720.256 1891 720.256 1891 719.756L1891 720.256L1891.5 720.255V719.756V719.315V718.873V718.432V717.99V717.548V717.106V716.663V716.22V715.777V715.334V714.891V714.447V714.003V713.559V713.115V712.671V712.226V711.781V711.337V710.891V710.446V710.001V709.555V709.109V708.664V708.217V707.771V707.325V706.879V706.432V705.985V705.538V705.091V704.644V704.197V703.75V703.303V702.855V702.408V701.96V701.512V701.065V700.617V700.169V699.721V699.273V698.825V698.377V697.928V697.48V697.032V696.583V696.135V695.687V695.238V694.79V694.342V693.893V693.445V692.996V692.548V692.1V691.651V691.203V690.755V690.306V689.858V689.41V688.962V688.513V688.065V687.617V687.169V686.721V686.273V685.826V685.378V684.93V684.483V684.035V683.588V683.141V682.694V682.247V681.8V681.353V680.906V680.46V680.013V679.567V679.121V678.674V678.229V677.783V677.337V676.892V676.447V676.002V675.557V675.112V674.667V674.223V673.779V673.335V672.891V672.447V672.004V671.561V671.118V670.675V670.233V669.79V669.348V668.906V668.465V668.023V667.582V667.142V666.701V666.261V665.821V665.381V664.941V664.502V664.063V663.625V663.186V662.748V662.311V661.873V661.436V660.999V660.563V660.127V659.691V659.255V658.82V658.385V657.951V657.517V657.083V656.65V656.217V655.784V655.352V654.92V654.488V654.057V653.626V653.196V652.766V652.337V651.907V651.479V651.05V650.622V650.195V649.768V649.341V648.915V648.489V648.064V647.639V647.215V646.791V646.368V645.945V645.522V645.1V644.678V644.257V643.837V643.417V642.997V642.578V642.16V641.742V641.324V640.907V640.49V640.075V639.659V639.244V638.83V638.416V638.003V637.59V637.178V636.766V636.355V635.945V635.535V635.126V634.717V634.309V633.902V633.495V633.088V632.683V632.278V631.873V631.469V631.066V630.664V630.262V629.86V629.46V629.06V628.66V628.262V627.864V627.466V627.07V626.674V626.278V625.884V625.49V625.096V624.704V624.312V623.921V623.53V623.14V622.751V622.363V621.975V621.589V621.202V620.817V620.432V620.048V619.665V619.283V618.901V618.52V618.14V617.761V617.382V617.005V616.628V616.251V615.876V615.501V615.128V614.755V614.382V614.011V613.641V613.271V612.902V612.534V612.167V611.8V611.435V611.07V610.706V610.344V609.981V609.62V609.26V608.901V608.542V608.184V607.827V607.472V607.117V606.763V606.409V606.057V605.706V605.355V605.006V604.657V604.31V603.963V603.617V603.272V602.929V602.586V602.244V601.903V601.563V601.224V600.886V600.549V600.213V599.878V599.544V599.21V598.878V598.547V598.217V597.888V597.56V597.233V596.907V596.582V596.259V595.936V595.614V595.293V594.974V594.655V594.337V594.021V593.706V593.391V593.078V592.766V592.455V592.145V591.836V591.528V591.222V590.916V590.612V590.308V590.006V589.705V589.405V589.107V588.809V588.513V588.217V587.923V587.63V587.338V587.048V586.758V586.47V586.183V585.897V585.612V585.329V585.046V584.765V584.485V584.207V583.929V583.653V583.378V583.104V582.832V582.56V582.29V582.021V581.754V581.487V581.222V580.959V580.696V580.435V580.175V579.916V579.659V579.403V579.148V578.895V578.642V578.391V578.142V577.894V577.647V577.401V577.157V576.914V576.672V576.432V576.193V575.956V575.72V575.485V575.251V575.019V574.789V574.559V574.331V574.105V573.88V573.656V573.434V573.213V572.993V572.775V572.558V572.343V572.129V571.917V571.706V571.496V571.288V571.082V570.876V570.673V570.47V570.27V570.07V569.872V569.676V569.481V569.288V569.096V568.906V568.717V568.529V568.343V568.159V567.976V567.795V567.615V567.437V567.26V567.085V566.911V566.739V566.569V566.4V566.232V566.066V565.902V565.739V565.578V565.419V565.261V565.104V564.95V564.797V564.645V564.495V564.347V564.2V564.055V563.912V563.77V563.63V563.491V563.354V563.219V563.086V562.954V562.823V562.695V562.568V562.443V562.319V562.197V562.077V561.958V561.842V561.727V561.613V561.502V561.392V561.283V561.177V561.072V560.969V560.868V560.768V560.67V560.574V560.48V560.388V560.297V560.208V560.121V560.035V559.951V559.869V559.789V559.711V559.635V559.56V559.487V559.416V559.347V559.279V559.213V559.15V559.088V559.028V558.969V558.913V558.858V558.806V558.755V558.706V558.659V558.613V558.57V558.528V558.489V558.451V558.415V558.381V558.349V558.319V558.291V558.265V558.24V558.218V558.197V558.179V558.162V558.147V558.134V558.124V558.115V558.108V558.103V558.1C1891.5 558.099 1891.5 558.099 1891 558.099H1891.5V557.742L1891.16 557.626C1363.48 375.898 1018.31 359.964 777.157 376.791C698.959 382.247 631.676 391.152 572.683 398.96C540.737 403.188 511.223 407.094 483.722 409.956C405.396 418.11 343.367 417.807 287.736 392.505C254.525 377.401 231.223 348.423 212.151 312.631C196.703 283.641 184.056 250.233 171.164 216.178C168.137 208.181 165.096 200.148 162.002 192.129C129.494 107.863 91.1434 25.0345 1.12639 1.51624Z" fill="#602B3B" stroke="#602B3B" stroke-linecap="round"/>
</svg>
